<mxfile host="app.diagrams.net" modified="2022-02-20T12:01:22.092Z" agent="5.0 (Windows NT 10.0; Win64; x64) AppleWebKit/537.36 (KHTML, like Gecko) Chrome/98.0.4758.102 Safari/537.36" etag="wxF5Q7uhj7pBFot4z3IE" version="16.6.1" type="github">
  <diagram id="C5RBs43oDa-KdzZeNtuy" name="Page-1">
    <mxGraphModel dx="2249" dy="794" grid="1" gridSize="10" guides="1" tooltips="1" connect="1" arrows="1" fold="1" page="1" pageScale="1" pageWidth="827" pageHeight="1169" math="0" shadow="0">
      <root>
        <mxCell id="WIyWlLk6GJQsqaUBKTNV-0" />
        <mxCell id="WIyWlLk6GJQsqaUBKTNV-1" parent="WIyWlLk6GJQsqaUBKTNV-0" />
        <mxCell id="WIyWlLk6GJQsqaUBKTNV-2" value="" style="rounded=0;html=1;jettySize=auto;orthogonalLoop=1;fontSize=11;endArrow=block;endFill=0;endSize=8;strokeWidth=1;shadow=0;labelBackgroundColor=none;edgeStyle=orthogonalEdgeStyle;" parent="WIyWlLk6GJQsqaUBKTNV-1" source="WIyWlLk6GJQsqaUBKTNV-3" edge="1">
          <mxGeometry relative="1" as="geometry">
            <mxPoint x="420" y="100" as="targetPoint" />
          </mxGeometry>
        </mxCell>
        <mxCell id="WIyWlLk6GJQsqaUBKTNV-3" value="Inicio" style="rounded=1;whiteSpace=wrap;html=1;fontSize=12;glass=0;strokeWidth=1;shadow=0;" parent="WIyWlLk6GJQsqaUBKTNV-1" vertex="1">
          <mxGeometry x="360" y="10" width="120" height="40" as="geometry" />
        </mxCell>
        <mxCell id="uy8-HGgZ6Y9Sa29WdMy9-0" value="Escribir &quot;Introduzca un nÃºmero entre 1 y 12:&quot;" style="shape=parallelogram;perimeter=parallelogramPerimeter;whiteSpace=wrap;html=1;fixedSize=1;" vertex="1" parent="WIyWlLk6GJQsqaUBKTNV-1">
          <mxGeometry x="340" y="100" width="160" height="60" as="geometry" />
        </mxCell>
        <mxCell id="uy8-HGgZ6Y9Sa29WdMy9-1" value="" style="rounded=0;html=1;jettySize=auto;orthogonalLoop=1;fontSize=11;endArrow=block;endFill=0;endSize=8;strokeWidth=1;shadow=0;labelBackgroundColor=none;edgeStyle=orthogonalEdgeStyle;" edge="1" parent="WIyWlLk6GJQsqaUBKTNV-1">
          <mxGeometry relative="1" as="geometry">
            <mxPoint x="419.5" y="160" as="sourcePoint" />
            <mxPoint x="419.5" y="210" as="targetPoint" />
          </mxGeometry>
        </mxCell>
        <mxCell id="uy8-HGgZ6Y9Sa29WdMy9-2" value="Poner el valor introducido en la variable valorIntroducido" style="shape=parallelogram;perimeter=parallelogramPerimeter;whiteSpace=wrap;html=1;fixedSize=1;" vertex="1" parent="WIyWlLk6GJQsqaUBKTNV-1">
          <mxGeometry x="350" y="210" width="130" height="60" as="geometry" />
        </mxCell>
        <mxCell id="uy8-HGgZ6Y9Sa29WdMy9-3" value="" style="rounded=0;html=1;jettySize=auto;orthogonalLoop=1;fontSize=11;endArrow=block;endFill=0;endSize=8;strokeWidth=1;shadow=0;labelBackgroundColor=none;edgeStyle=orthogonalEdgeStyle;" edge="1" parent="WIyWlLk6GJQsqaUBKTNV-1">
          <mxGeometry relative="1" as="geometry">
            <mxPoint x="419.5" y="270" as="sourcePoint" />
            <mxPoint x="419.5" y="320" as="targetPoint" />
          </mxGeometry>
        </mxCell>
        <mxCell id="uy8-HGgZ6Y9Sa29WdMy9-4" value="valorIntroducido" style="rhombus;whiteSpace=wrap;html=1;" vertex="1" parent="WIyWlLk6GJQsqaUBKTNV-1">
          <mxGeometry x="370" y="320" width="100" height="80" as="geometry" />
        </mxCell>
        <mxCell id="uy8-HGgZ6Y9Sa29WdMy9-7" value="Escribir &quot;El mes correspondiente es Enero.&quot;" style="shape=parallelogram;perimeter=parallelogramPerimeter;whiteSpace=wrap;html=1;fixedSize=1;" vertex="1" parent="WIyWlLk6GJQsqaUBKTNV-1">
          <mxGeometry x="-413" y="430" width="130" height="60" as="geometry" />
        </mxCell>
        <mxCell id="uy8-HGgZ6Y9Sa29WdMy9-8" value="" style="rounded=0;html=1;jettySize=auto;orthogonalLoop=1;fontSize=11;endArrow=block;endFill=0;endSize=8;strokeWidth=1;shadow=0;labelBackgroundColor=none;edgeStyle=orthogonalEdgeStyle;entryX=0.5;entryY=0;entryDx=0;entryDy=0;" edge="1" parent="WIyWlLk6GJQsqaUBKTNV-1" target="uy8-HGgZ6Y9Sa29WdMy9-9">
          <mxGeometry relative="1" as="geometry">
            <mxPoint x="-225.5" y="360" as="sourcePoint" />
            <mxPoint x="-225.5" y="420" as="targetPoint" />
            <Array as="points" />
          </mxGeometry>
        </mxCell>
        <mxCell id="uy8-HGgZ6Y9Sa29WdMy9-9" value="&lt;span&gt;Escribir &quot;El mes correspondiente es Febrero.&quot;&lt;/span&gt;" style="shape=parallelogram;perimeter=parallelogramPerimeter;whiteSpace=wrap;html=1;fixedSize=1;" vertex="1" parent="WIyWlLk6GJQsqaUBKTNV-1">
          <mxGeometry x="-290" y="430" width="130" height="60" as="geometry" />
        </mxCell>
        <mxCell id="uy8-HGgZ6Y9Sa29WdMy9-12" value="" style="rounded=0;html=1;jettySize=auto;orthogonalLoop=1;fontSize=11;endArrow=block;endFill=0;endSize=8;strokeWidth=1;shadow=0;labelBackgroundColor=none;edgeStyle=orthogonalEdgeStyle;entryX=0.5;entryY=0;entryDx=0;entryDy=0;" edge="1" parent="WIyWlLk6GJQsqaUBKTNV-1" target="uy8-HGgZ6Y9Sa29WdMy9-23">
          <mxGeometry relative="1" as="geometry">
            <mxPoint x="-105.5" y="360" as="sourcePoint" />
            <mxPoint x="-105.5" y="410" as="targetPoint" />
          </mxGeometry>
        </mxCell>
        <mxCell id="uy8-HGgZ6Y9Sa29WdMy9-20" value="" style="rounded=0;html=1;jettySize=auto;orthogonalLoop=1;fontSize=11;endArrow=block;endFill=0;endSize=8;strokeWidth=1;shadow=0;labelBackgroundColor=none;edgeStyle=orthogonalEdgeStyle;entryX=0.615;entryY=0;entryDx=0;entryDy=0;entryPerimeter=0;" edge="1" parent="WIyWlLk6GJQsqaUBKTNV-1" target="uy8-HGgZ6Y9Sa29WdMy9-26">
          <mxGeometry relative="1" as="geometry">
            <mxPoint x="270" y="360" as="sourcePoint" />
            <mxPoint x="270" y="410" as="targetPoint" />
            <Array as="points">
              <mxPoint x="270" y="390" />
              <mxPoint x="270" y="390" />
            </Array>
          </mxGeometry>
        </mxCell>
        <mxCell id="uy8-HGgZ6Y9Sa29WdMy9-22" value="" style="rounded=0;html=1;jettySize=auto;orthogonalLoop=1;fontSize=11;endArrow=block;endFill=0;endSize=8;strokeWidth=1;shadow=0;labelBackgroundColor=none;edgeStyle=orthogonalEdgeStyle;entryX=0.5;entryY=0;entryDx=0;entryDy=0;" edge="1" parent="WIyWlLk6GJQsqaUBKTNV-1" target="uy8-HGgZ6Y9Sa29WdMy9-24">
          <mxGeometry relative="1" as="geometry">
            <mxPoint x="14.5" y="360" as="sourcePoint" />
            <mxPoint x="14.5" y="410" as="targetPoint" />
          </mxGeometry>
        </mxCell>
        <mxCell id="uy8-HGgZ6Y9Sa29WdMy9-23" value="&lt;span&gt;Escribir &quot;El mes correspondiente es Marzo.&quot;&lt;/span&gt;" style="shape=parallelogram;perimeter=parallelogramPerimeter;whiteSpace=wrap;html=1;fixedSize=1;" vertex="1" parent="WIyWlLk6GJQsqaUBKTNV-1">
          <mxGeometry x="-170" y="430" width="130" height="60" as="geometry" />
        </mxCell>
        <mxCell id="uy8-HGgZ6Y9Sa29WdMy9-24" value="&lt;span&gt;Escribir &quot;El mes correspondiente es Abril.&quot;&lt;/span&gt;" style="shape=parallelogram;perimeter=parallelogramPerimeter;whiteSpace=wrap;html=1;fixedSize=1;" vertex="1" parent="WIyWlLk6GJQsqaUBKTNV-1">
          <mxGeometry x="-50" y="430" width="130" height="60" as="geometry" />
        </mxCell>
        <mxCell id="uy8-HGgZ6Y9Sa29WdMy9-25" value="&lt;span&gt;Escribir &quot;El mes correspondiente es Mayo.&quot;&lt;/span&gt;" style="shape=parallelogram;perimeter=parallelogramPerimeter;whiteSpace=wrap;html=1;fixedSize=1;" vertex="1" parent="WIyWlLk6GJQsqaUBKTNV-1">
          <mxGeometry x="70" y="430" width="130" height="60" as="geometry" />
        </mxCell>
        <mxCell id="uy8-HGgZ6Y9Sa29WdMy9-26" value="&lt;span&gt;Escribir &quot;El mes correspondiente es Junio.&quot;&lt;/span&gt;" style="shape=parallelogram;perimeter=parallelogramPerimeter;whiteSpace=wrap;html=1;fixedSize=1;" vertex="1" parent="WIyWlLk6GJQsqaUBKTNV-1">
          <mxGeometry x="190" y="430" width="130" height="60" as="geometry" />
        </mxCell>
        <mxCell id="uy8-HGgZ6Y9Sa29WdMy9-28" value="&lt;span&gt;Escribir &quot;El mes correspondiente es Julio.&quot;&lt;/span&gt;" style="shape=parallelogram;perimeter=parallelogramPerimeter;whiteSpace=wrap;html=1;fixedSize=1;" vertex="1" parent="WIyWlLk6GJQsqaUBKTNV-1">
          <mxGeometry x="460" y="430" width="130" height="60" as="geometry" />
        </mxCell>
        <mxCell id="uy8-HGgZ6Y9Sa29WdMy9-29" value="&lt;span&gt;Escribir &quot;El mes correspondiente es Agosto.&quot;&lt;/span&gt;" style="shape=parallelogram;perimeter=parallelogramPerimeter;whiteSpace=wrap;html=1;fixedSize=1;" vertex="1" parent="WIyWlLk6GJQsqaUBKTNV-1">
          <mxGeometry x="590" y="430" width="130" height="60" as="geometry" />
        </mxCell>
        <mxCell id="uy8-HGgZ6Y9Sa29WdMy9-30" value="&lt;span&gt;Escribir &quot;El mes correspondiente es Septiembre.&quot;&lt;/span&gt;" style="shape=parallelogram;perimeter=parallelogramPerimeter;whiteSpace=wrap;html=1;fixedSize=1;" vertex="1" parent="WIyWlLk6GJQsqaUBKTNV-1">
          <mxGeometry x="710" y="430" width="130" height="60" as="geometry" />
        </mxCell>
        <mxCell id="uy8-HGgZ6Y9Sa29WdMy9-31" value="&lt;span&gt;Escribir &quot;El mes correspondiente es Octubre.&quot;&lt;/span&gt;" style="shape=parallelogram;perimeter=parallelogramPerimeter;whiteSpace=wrap;html=1;fixedSize=1;" vertex="1" parent="WIyWlLk6GJQsqaUBKTNV-1">
          <mxGeometry x="827" y="430" width="130" height="60" as="geometry" />
        </mxCell>
        <mxCell id="uy8-HGgZ6Y9Sa29WdMy9-32" value="&lt;span&gt;Escribir &quot;El mes correspondiente es Noviembre.&quot;&lt;/span&gt;" style="shape=parallelogram;perimeter=parallelogramPerimeter;whiteSpace=wrap;html=1;fixedSize=1;" vertex="1" parent="WIyWlLk6GJQsqaUBKTNV-1">
          <mxGeometry x="950" y="430" width="130" height="60" as="geometry" />
        </mxCell>
        <mxCell id="uy8-HGgZ6Y9Sa29WdMy9-33" value="&lt;span&gt;Escribir &quot;El mes correspondiente es Diciembre.&quot;&lt;/span&gt;" style="shape=parallelogram;perimeter=parallelogramPerimeter;whiteSpace=wrap;html=1;fixedSize=1;" vertex="1" parent="WIyWlLk6GJQsqaUBKTNV-1">
          <mxGeometry x="1070" y="430" width="130" height="60" as="geometry" />
        </mxCell>
        <mxCell id="uy8-HGgZ6Y9Sa29WdMy9-34" value="&lt;span&gt;Escribir &quot;El valor introducido no es vÃ¡lido.&quot;&lt;/span&gt;" style="shape=parallelogram;perimeter=parallelogramPerimeter;whiteSpace=wrap;html=1;fixedSize=1;" vertex="1" parent="WIyWlLk6GJQsqaUBKTNV-1">
          <mxGeometry x="1190" y="430" width="130" height="60" as="geometry" />
        </mxCell>
        <mxCell id="uy8-HGgZ6Y9Sa29WdMy9-35" value="" style="rounded=0;html=1;jettySize=auto;orthogonalLoop=1;fontSize=11;endArrow=block;endFill=0;endSize=8;strokeWidth=1;shadow=0;labelBackgroundColor=none;edgeStyle=orthogonalEdgeStyle;exitX=0;exitY=0.5;exitDx=0;exitDy=0;" edge="1" parent="WIyWlLk6GJQsqaUBKTNV-1" source="uy8-HGgZ6Y9Sa29WdMy9-4">
          <mxGeometry relative="1" as="geometry">
            <mxPoint x="-140" y="370" as="sourcePoint" />
            <mxPoint x="-360" y="430" as="targetPoint" />
            <Array as="points">
              <mxPoint x="-360" y="360" />
              <mxPoint x="-360" y="430" />
            </Array>
          </mxGeometry>
        </mxCell>
        <mxCell id="uy8-HGgZ6Y9Sa29WdMy9-38" value="" style="rounded=0;html=1;jettySize=auto;orthogonalLoop=1;fontSize=11;endArrow=block;endFill=0;endSize=8;strokeWidth=1;shadow=0;labelBackgroundColor=none;edgeStyle=orthogonalEdgeStyle;entryX=0.615;entryY=0;entryDx=0;entryDy=0;entryPerimeter=0;" edge="1" parent="WIyWlLk6GJQsqaUBKTNV-1">
          <mxGeometry relative="1" as="geometry">
            <mxPoint x="150.05" y="360" as="sourcePoint" />
            <mxPoint x="149.99999999999983" y="430" as="targetPoint" />
            <Array as="points">
              <mxPoint x="150" y="380" />
              <mxPoint x="150" y="380" />
            </Array>
          </mxGeometry>
        </mxCell>
        <mxCell id="uy8-HGgZ6Y9Sa29WdMy9-39" value="" style="rounded=0;html=1;jettySize=auto;orthogonalLoop=1;fontSize=11;endArrow=block;endFill=0;endSize=8;strokeWidth=1;shadow=0;labelBackgroundColor=none;edgeStyle=orthogonalEdgeStyle;entryX=0.685;entryY=0.017;entryDx=0;entryDy=0;entryPerimeter=0;exitX=1;exitY=0.5;exitDx=0;exitDy=0;" edge="1" parent="WIyWlLk6GJQsqaUBKTNV-1" source="uy8-HGgZ6Y9Sa29WdMy9-4" target="uy8-HGgZ6Y9Sa29WdMy9-34">
          <mxGeometry relative="1" as="geometry">
            <mxPoint x="620.05" y="325" as="sourcePoint" />
            <mxPoint x="619.9999999999998" y="395" as="targetPoint" />
            <Array as="points">
              <mxPoint x="1280" y="360" />
              <mxPoint x="1280" y="395" />
            </Array>
          </mxGeometry>
        </mxCell>
        <mxCell id="uy8-HGgZ6Y9Sa29WdMy9-41" value="" style="rounded=0;html=1;jettySize=auto;orthogonalLoop=1;fontSize=11;endArrow=block;endFill=0;endSize=8;strokeWidth=1;shadow=0;labelBackgroundColor=none;edgeStyle=orthogonalEdgeStyle;entryX=0.615;entryY=0;entryDx=0;entryDy=0;entryPerimeter=0;" edge="1" parent="WIyWlLk6GJQsqaUBKTNV-1">
          <mxGeometry relative="1" as="geometry">
            <mxPoint x="530.05" y="360" as="sourcePoint" />
            <mxPoint x="529.9999999999998" y="430" as="targetPoint" />
            <Array as="points">
              <mxPoint x="530" y="370" />
              <mxPoint x="530" y="370" />
            </Array>
          </mxGeometry>
        </mxCell>
        <mxCell id="uy8-HGgZ6Y9Sa29WdMy9-42" value="" style="rounded=0;html=1;jettySize=auto;orthogonalLoop=1;fontSize=11;endArrow=block;endFill=0;endSize=8;strokeWidth=1;shadow=0;labelBackgroundColor=none;edgeStyle=orthogonalEdgeStyle;entryX=0.615;entryY=0;entryDx=0;entryDy=0;entryPerimeter=0;" edge="1" parent="WIyWlLk6GJQsqaUBKTNV-1">
          <mxGeometry relative="1" as="geometry">
            <mxPoint x="680.05" y="360" as="sourcePoint" />
            <mxPoint x="679.9999999999998" y="430" as="targetPoint" />
            <Array as="points">
              <mxPoint x="680" y="370" />
              <mxPoint x="680" y="370" />
            </Array>
          </mxGeometry>
        </mxCell>
        <mxCell id="uy8-HGgZ6Y9Sa29WdMy9-43" value="" style="rounded=0;html=1;jettySize=auto;orthogonalLoop=1;fontSize=11;endArrow=block;endFill=0;endSize=8;strokeWidth=1;shadow=0;labelBackgroundColor=none;edgeStyle=orthogonalEdgeStyle;entryX=0.615;entryY=0;entryDx=0;entryDy=0;entryPerimeter=0;" edge="1" parent="WIyWlLk6GJQsqaUBKTNV-1">
          <mxGeometry relative="1" as="geometry">
            <mxPoint x="774.55" y="360" as="sourcePoint" />
            <mxPoint x="774.4999999999998" y="430" as="targetPoint" />
            <Array as="points">
              <mxPoint x="775" y="380" />
              <mxPoint x="775" y="380" />
            </Array>
          </mxGeometry>
        </mxCell>
        <mxCell id="uy8-HGgZ6Y9Sa29WdMy9-44" value="" style="rounded=0;html=1;jettySize=auto;orthogonalLoop=1;fontSize=11;endArrow=block;endFill=0;endSize=8;strokeWidth=1;shadow=0;labelBackgroundColor=none;edgeStyle=orthogonalEdgeStyle;entryX=0.615;entryY=0;entryDx=0;entryDy=0;entryPerimeter=0;" edge="1" parent="WIyWlLk6GJQsqaUBKTNV-1">
          <mxGeometry relative="1" as="geometry">
            <mxPoint x="900.05" y="360" as="sourcePoint" />
            <mxPoint x="899.9999999999998" y="430" as="targetPoint" />
            <Array as="points">
              <mxPoint x="900" y="370" />
              <mxPoint x="900" y="370" />
            </Array>
          </mxGeometry>
        </mxCell>
        <mxCell id="uy8-HGgZ6Y9Sa29WdMy9-45" value="" style="rounded=0;html=1;jettySize=auto;orthogonalLoop=1;fontSize=11;endArrow=block;endFill=0;endSize=8;strokeWidth=1;shadow=0;labelBackgroundColor=none;edgeStyle=orthogonalEdgeStyle;entryX=0.615;entryY=0;entryDx=0;entryDy=0;entryPerimeter=0;" edge="1" parent="WIyWlLk6GJQsqaUBKTNV-1">
          <mxGeometry relative="1" as="geometry">
            <mxPoint x="1014.55" y="360" as="sourcePoint" />
            <mxPoint x="1014.4999999999998" y="430" as="targetPoint" />
            <Array as="points">
              <mxPoint x="1014.5" y="380" />
              <mxPoint x="1014.5" y="380" />
            </Array>
          </mxGeometry>
        </mxCell>
        <mxCell id="uy8-HGgZ6Y9Sa29WdMy9-46" value="" style="rounded=0;html=1;jettySize=auto;orthogonalLoop=1;fontSize=11;endArrow=block;endFill=0;endSize=8;strokeWidth=1;shadow=0;labelBackgroundColor=none;edgeStyle=orthogonalEdgeStyle;entryX=0.615;entryY=0;entryDx=0;entryDy=0;entryPerimeter=0;" edge="1" parent="WIyWlLk6GJQsqaUBKTNV-1">
          <mxGeometry relative="1" as="geometry">
            <mxPoint x="1140.05" y="360" as="sourcePoint" />
            <mxPoint x="1139.9999999999998" y="430" as="targetPoint" />
            <Array as="points">
              <mxPoint x="1140" y="380" />
              <mxPoint x="1140" y="380" />
            </Array>
          </mxGeometry>
        </mxCell>
        <mxCell id="uy8-HGgZ6Y9Sa29WdMy9-48" value="" style="rounded=0;html=1;jettySize=auto;orthogonalLoop=1;fontSize=11;endArrow=block;endFill=0;endSize=8;strokeWidth=1;shadow=0;labelBackgroundColor=none;edgeStyle=orthogonalEdgeStyle;" edge="1" parent="WIyWlLk6GJQsqaUBKTNV-1">
          <mxGeometry relative="1" as="geometry">
            <mxPoint x="1014.5" y="490" as="sourcePoint" />
            <mxPoint x="1014.5" y="540" as="targetPoint" />
          </mxGeometry>
        </mxCell>
        <mxCell id="uy8-HGgZ6Y9Sa29WdMy9-49" value="" style="rounded=0;html=1;jettySize=auto;orthogonalLoop=1;fontSize=11;endArrow=block;endFill=0;endSize=8;strokeWidth=1;shadow=0;labelBackgroundColor=none;edgeStyle=orthogonalEdgeStyle;" edge="1" parent="WIyWlLk6GJQsqaUBKTNV-1">
          <mxGeometry relative="1" as="geometry">
            <mxPoint x="1134.5" y="490" as="sourcePoint" />
            <mxPoint x="1134.5" y="540" as="targetPoint" />
          </mxGeometry>
        </mxCell>
        <mxCell id="uy8-HGgZ6Y9Sa29WdMy9-50" value="" style="rounded=0;html=1;jettySize=auto;orthogonalLoop=1;fontSize=11;endArrow=block;endFill=0;endSize=8;strokeWidth=1;shadow=0;labelBackgroundColor=none;edgeStyle=orthogonalEdgeStyle;" edge="1" parent="WIyWlLk6GJQsqaUBKTNV-1">
          <mxGeometry relative="1" as="geometry">
            <mxPoint x="1270" y="490" as="sourcePoint" />
            <mxPoint x="1270" y="540" as="targetPoint" />
          </mxGeometry>
        </mxCell>
        <mxCell id="uy8-HGgZ6Y9Sa29WdMy9-51" value="" style="rounded=0;html=1;jettySize=auto;orthogonalLoop=1;fontSize=11;endArrow=block;endFill=0;endSize=8;strokeWidth=1;shadow=0;labelBackgroundColor=none;edgeStyle=orthogonalEdgeStyle;" edge="1" parent="WIyWlLk6GJQsqaUBKTNV-1">
          <mxGeometry relative="1" as="geometry">
            <mxPoint x="880" y="490" as="sourcePoint" />
            <mxPoint x="880" y="540" as="targetPoint" />
          </mxGeometry>
        </mxCell>
        <mxCell id="uy8-HGgZ6Y9Sa29WdMy9-52" value="" style="rounded=0;html=1;jettySize=auto;orthogonalLoop=1;fontSize=11;endArrow=block;endFill=0;endSize=8;strokeWidth=1;shadow=0;labelBackgroundColor=none;edgeStyle=orthogonalEdgeStyle;" edge="1" parent="WIyWlLk6GJQsqaUBKTNV-1">
          <mxGeometry relative="1" as="geometry">
            <mxPoint x="760" y="490" as="sourcePoint" />
            <mxPoint x="760" y="540" as="targetPoint" />
          </mxGeometry>
        </mxCell>
        <mxCell id="uy8-HGgZ6Y9Sa29WdMy9-53" value="" style="rounded=0;html=1;jettySize=auto;orthogonalLoop=1;fontSize=11;endArrow=block;endFill=0;endSize=8;strokeWidth=1;shadow=0;labelBackgroundColor=none;edgeStyle=orthogonalEdgeStyle;" edge="1" parent="WIyWlLk6GJQsqaUBKTNV-1">
          <mxGeometry relative="1" as="geometry">
            <mxPoint x="654.5" y="490" as="sourcePoint" />
            <mxPoint x="654.5" y="540" as="targetPoint" />
          </mxGeometry>
        </mxCell>
        <mxCell id="uy8-HGgZ6Y9Sa29WdMy9-54" value="" style="rounded=0;html=1;jettySize=auto;orthogonalLoop=1;fontSize=11;endArrow=block;endFill=0;endSize=8;strokeWidth=1;shadow=0;labelBackgroundColor=none;edgeStyle=orthogonalEdgeStyle;" edge="1" parent="WIyWlLk6GJQsqaUBKTNV-1">
          <mxGeometry relative="1" as="geometry">
            <mxPoint x="530" y="490" as="sourcePoint" />
            <mxPoint x="530" y="540" as="targetPoint" />
          </mxGeometry>
        </mxCell>
        <mxCell id="uy8-HGgZ6Y9Sa29WdMy9-55" value="" style="rounded=0;html=1;jettySize=auto;orthogonalLoop=1;fontSize=11;endArrow=block;endFill=0;endSize=8;strokeWidth=1;shadow=0;labelBackgroundColor=none;edgeStyle=orthogonalEdgeStyle;" edge="1" parent="WIyWlLk6GJQsqaUBKTNV-1">
          <mxGeometry relative="1" as="geometry">
            <mxPoint x="260" y="490" as="sourcePoint" />
            <mxPoint x="260" y="540" as="targetPoint" />
          </mxGeometry>
        </mxCell>
        <mxCell id="uy8-HGgZ6Y9Sa29WdMy9-56" value="" style="rounded=0;html=1;jettySize=auto;orthogonalLoop=1;fontSize=11;endArrow=block;endFill=0;endSize=8;strokeWidth=1;shadow=0;labelBackgroundColor=none;edgeStyle=orthogonalEdgeStyle;" edge="1" parent="WIyWlLk6GJQsqaUBKTNV-1">
          <mxGeometry relative="1" as="geometry">
            <mxPoint x="140" y="490" as="sourcePoint" />
            <mxPoint x="140" y="540" as="targetPoint" />
          </mxGeometry>
        </mxCell>
        <mxCell id="uy8-HGgZ6Y9Sa29WdMy9-57" value="" style="rounded=0;html=1;jettySize=auto;orthogonalLoop=1;fontSize=11;endArrow=block;endFill=0;endSize=8;strokeWidth=1;shadow=0;labelBackgroundColor=none;edgeStyle=orthogonalEdgeStyle;" edge="1" parent="WIyWlLk6GJQsqaUBKTNV-1">
          <mxGeometry relative="1" as="geometry">
            <mxPoint x="14.5" y="490" as="sourcePoint" />
            <mxPoint x="14.5" y="540" as="targetPoint" />
          </mxGeometry>
        </mxCell>
        <mxCell id="uy8-HGgZ6Y9Sa29WdMy9-58" value="" style="rounded=0;html=1;jettySize=auto;orthogonalLoop=1;fontSize=11;endArrow=block;endFill=0;endSize=8;strokeWidth=1;shadow=0;labelBackgroundColor=none;edgeStyle=orthogonalEdgeStyle;" edge="1" parent="WIyWlLk6GJQsqaUBKTNV-1">
          <mxGeometry relative="1" as="geometry">
            <mxPoint x="-120" y="490" as="sourcePoint" />
            <mxPoint x="-120" y="540" as="targetPoint" />
          </mxGeometry>
        </mxCell>
        <mxCell id="uy8-HGgZ6Y9Sa29WdMy9-59" value="" style="rounded=0;html=1;jettySize=auto;orthogonalLoop=1;fontSize=11;endArrow=block;endFill=0;endSize=8;strokeWidth=1;shadow=0;labelBackgroundColor=none;edgeStyle=orthogonalEdgeStyle;" edge="1" parent="WIyWlLk6GJQsqaUBKTNV-1">
          <mxGeometry relative="1" as="geometry">
            <mxPoint x="-230" y="490" as="sourcePoint" />
            <mxPoint x="-230" y="540" as="targetPoint" />
          </mxGeometry>
        </mxCell>
        <mxCell id="uy8-HGgZ6Y9Sa29WdMy9-60" value="" style="rounded=0;html=1;jettySize=auto;orthogonalLoop=1;fontSize=11;endArrow=block;endFill=0;endSize=8;strokeWidth=1;shadow=0;labelBackgroundColor=none;edgeStyle=orthogonalEdgeStyle;" edge="1" parent="WIyWlLk6GJQsqaUBKTNV-1">
          <mxGeometry relative="1" as="geometry">
            <mxPoint x="-360" y="490" as="sourcePoint" />
            <mxPoint x="-360" y="540" as="targetPoint" />
          </mxGeometry>
        </mxCell>
        <mxCell id="uy8-HGgZ6Y9Sa29WdMy9-71" value="Fin" style="rounded=1;whiteSpace=wrap;html=1;fontSize=12;glass=0;strokeWidth=1;shadow=0;" vertex="1" parent="WIyWlLk6GJQsqaUBKTNV-1">
          <mxGeometry x="-150" y="540" width="60" height="40" as="geometry" />
        </mxCell>
        <mxCell id="uy8-HGgZ6Y9Sa29WdMy9-73" value="Fin" style="rounded=1;whiteSpace=wrap;html=1;fontSize=12;glass=0;strokeWidth=1;shadow=0;" vertex="1" parent="WIyWlLk6GJQsqaUBKTNV-1">
          <mxGeometry x="-390" y="540" width="60" height="40" as="geometry" />
        </mxCell>
        <mxCell id="uy8-HGgZ6Y9Sa29WdMy9-74" value="Fin" style="rounded=1;whiteSpace=wrap;html=1;fontSize=12;glass=0;strokeWidth=1;shadow=0;" vertex="1" parent="WIyWlLk6GJQsqaUBKTNV-1">
          <mxGeometry x="-260" y="540" width="60" height="40" as="geometry" />
        </mxCell>
        <mxCell id="uy8-HGgZ6Y9Sa29WdMy9-75" value="Fin" style="rounded=1;whiteSpace=wrap;html=1;fontSize=12;glass=0;strokeWidth=1;shadow=0;" vertex="1" parent="WIyWlLk6GJQsqaUBKTNV-1">
          <mxGeometry x="-15" y="540" width="60" height="40" as="geometry" />
        </mxCell>
        <mxCell id="uy8-HGgZ6Y9Sa29WdMy9-76" value="Fin" style="rounded=1;whiteSpace=wrap;html=1;fontSize=12;glass=0;strokeWidth=1;shadow=0;" vertex="1" parent="WIyWlLk6GJQsqaUBKTNV-1">
          <mxGeometry x="105" y="540" width="60" height="40" as="geometry" />
        </mxCell>
        <mxCell id="uy8-HGgZ6Y9Sa29WdMy9-77" value="Fin" style="rounded=1;whiteSpace=wrap;html=1;fontSize=12;glass=0;strokeWidth=1;shadow=0;" vertex="1" parent="WIyWlLk6GJQsqaUBKTNV-1">
          <mxGeometry x="230" y="540" width="60" height="40" as="geometry" />
        </mxCell>
        <mxCell id="uy8-HGgZ6Y9Sa29WdMy9-78" value="Fin" style="rounded=1;whiteSpace=wrap;html=1;fontSize=12;glass=0;strokeWidth=1;shadow=0;" vertex="1" parent="WIyWlLk6GJQsqaUBKTNV-1">
          <mxGeometry x="495" y="540" width="60" height="40" as="geometry" />
        </mxCell>
        <mxCell id="uy8-HGgZ6Y9Sa29WdMy9-79" value="Fin" style="rounded=1;whiteSpace=wrap;html=1;fontSize=12;glass=0;strokeWidth=1;shadow=0;" vertex="1" parent="WIyWlLk6GJQsqaUBKTNV-1">
          <mxGeometry x="630" y="540" width="60" height="40" as="geometry" />
        </mxCell>
        <mxCell id="uy8-HGgZ6Y9Sa29WdMy9-80" value="Fin" style="rounded=1;whiteSpace=wrap;html=1;fontSize=12;glass=0;strokeWidth=1;shadow=0;" vertex="1" parent="WIyWlLk6GJQsqaUBKTNV-1">
          <mxGeometry x="730" y="540" width="60" height="40" as="geometry" />
        </mxCell>
        <mxCell id="uy8-HGgZ6Y9Sa29WdMy9-81" value="Fin" style="rounded=1;whiteSpace=wrap;html=1;fontSize=12;glass=0;strokeWidth=1;shadow=0;" vertex="1" parent="WIyWlLk6GJQsqaUBKTNV-1">
          <mxGeometry x="850" y="540" width="60" height="40" as="geometry" />
        </mxCell>
        <mxCell id="uy8-HGgZ6Y9Sa29WdMy9-82" value="Fin" style="rounded=1;whiteSpace=wrap;html=1;fontSize=12;glass=0;strokeWidth=1;shadow=0;" vertex="1" parent="WIyWlLk6GJQsqaUBKTNV-1">
          <mxGeometry x="985" y="540" width="60" height="40" as="geometry" />
        </mxCell>
        <mxCell id="uy8-HGgZ6Y9Sa29WdMy9-83" value="Fin" style="rounded=1;whiteSpace=wrap;html=1;fontSize=12;glass=0;strokeWidth=1;shadow=0;" vertex="1" parent="WIyWlLk6GJQsqaUBKTNV-1">
          <mxGeometry x="1241" y="540" width="60" height="40" as="geometry" />
        </mxCell>
        <mxCell id="uy8-HGgZ6Y9Sa29WdMy9-84" value="Fin" style="rounded=1;whiteSpace=wrap;html=1;fontSize=12;glass=0;strokeWidth=1;shadow=0;" vertex="1" parent="WIyWlLk6GJQsqaUBKTNV-1">
          <mxGeometry x="1105" y="540" width="60" height="40" as="geometry" />
        </mxCell>
        <mxCell id="uy8-HGgZ6Y9Sa29WdMy9-85" value="&lt;b&gt;case 1:&lt;/b&gt;" style="text;html=1;strokeColor=none;fillColor=none;align=center;verticalAlign=middle;whiteSpace=wrap;rounded=0;" vertex="1" parent="WIyWlLk6GJQsqaUBKTNV-1">
          <mxGeometry x="-413" y="360" width="50" height="30" as="geometry" />
        </mxCell>
        <mxCell id="uy8-HGgZ6Y9Sa29WdMy9-86" value="&lt;b&gt;case 12:&lt;/b&gt;" style="text;html=1;strokeColor=none;fillColor=none;align=center;verticalAlign=middle;whiteSpace=wrap;rounded=0;" vertex="1" parent="WIyWlLk6GJQsqaUBKTNV-1">
          <mxGeometry x="1090" y="360" width="50" height="30" as="geometry" />
        </mxCell>
        <mxCell id="uy8-HGgZ6Y9Sa29WdMy9-87" value="&lt;b&gt;case 10:&lt;/b&gt;" style="text;html=1;strokeColor=none;fillColor=none;align=center;verticalAlign=middle;whiteSpace=wrap;rounded=0;" vertex="1" parent="WIyWlLk6GJQsqaUBKTNV-1">
          <mxGeometry x="840" y="360" width="60" height="30" as="geometry" />
        </mxCell>
        <mxCell id="uy8-HGgZ6Y9Sa29WdMy9-88" value="&lt;b&gt;default:&lt;/b&gt;" style="text;html=1;strokeColor=none;fillColor=none;align=center;verticalAlign=middle;whiteSpace=wrap;rounded=0;" vertex="1" parent="WIyWlLk6GJQsqaUBKTNV-1">
          <mxGeometry x="1230" y="360" width="50" height="30" as="geometry" />
        </mxCell>
        <mxCell id="uy8-HGgZ6Y9Sa29WdMy9-89" value="&lt;b&gt;case 11:&lt;/b&gt;" style="text;html=1;strokeColor=none;fillColor=none;align=center;verticalAlign=middle;whiteSpace=wrap;rounded=0;" vertex="1" parent="WIyWlLk6GJQsqaUBKTNV-1">
          <mxGeometry x="957" y="360" width="50" height="30" as="geometry" />
        </mxCell>
        <mxCell id="uy8-HGgZ6Y9Sa29WdMy9-90" value="&lt;b&gt;case 9:&lt;/b&gt;" style="text;html=1;strokeColor=none;fillColor=none;align=center;verticalAlign=middle;whiteSpace=wrap;rounded=0;" vertex="1" parent="WIyWlLk6GJQsqaUBKTNV-1">
          <mxGeometry x="720" y="360" width="50" height="30" as="geometry" />
        </mxCell>
        <mxCell id="uy8-HGgZ6Y9Sa29WdMy9-91" value="&lt;b&gt;case 8:&lt;/b&gt;" style="text;html=1;strokeColor=none;fillColor=none;align=center;verticalAlign=middle;whiteSpace=wrap;rounded=0;" vertex="1" parent="WIyWlLk6GJQsqaUBKTNV-1">
          <mxGeometry x="630" y="360" width="50" height="30" as="geometry" />
        </mxCell>
        <mxCell id="uy8-HGgZ6Y9Sa29WdMy9-92" value="&lt;b&gt;case 7:&lt;/b&gt;" style="text;html=1;strokeColor=none;fillColor=none;align=center;verticalAlign=middle;whiteSpace=wrap;rounded=0;" vertex="1" parent="WIyWlLk6GJQsqaUBKTNV-1">
          <mxGeometry x="480" y="360" width="50" height="30" as="geometry" />
        </mxCell>
        <mxCell id="uy8-HGgZ6Y9Sa29WdMy9-93" value="&lt;b&gt;case 6:&lt;/b&gt;" style="text;html=1;strokeColor=none;fillColor=none;align=center;verticalAlign=middle;whiteSpace=wrap;rounded=0;" vertex="1" parent="WIyWlLk6GJQsqaUBKTNV-1">
          <mxGeometry x="220" y="360" width="50" height="30" as="geometry" />
        </mxCell>
        <mxCell id="uy8-HGgZ6Y9Sa29WdMy9-94" value="&lt;b&gt;case 5:&lt;/b&gt;" style="text;html=1;strokeColor=none;fillColor=none;align=center;verticalAlign=middle;whiteSpace=wrap;rounded=0;" vertex="1" parent="WIyWlLk6GJQsqaUBKTNV-1">
          <mxGeometry x="90" y="360" width="50" height="30" as="geometry" />
        </mxCell>
        <mxCell id="uy8-HGgZ6Y9Sa29WdMy9-95" value="&lt;b&gt;case 4:&lt;/b&gt;" style="text;html=1;strokeColor=none;fillColor=none;align=center;verticalAlign=middle;whiteSpace=wrap;rounded=0;" vertex="1" parent="WIyWlLk6GJQsqaUBKTNV-1">
          <mxGeometry x="-40" y="360" width="50" height="30" as="geometry" />
        </mxCell>
        <mxCell id="uy8-HGgZ6Y9Sa29WdMy9-96" value="&lt;b&gt;case 3:&lt;/b&gt;" style="text;html=1;strokeColor=none;fillColor=none;align=center;verticalAlign=middle;whiteSpace=wrap;rounded=0;" vertex="1" parent="WIyWlLk6GJQsqaUBKTNV-1">
          <mxGeometry x="-160" y="360" width="60" height="30" as="geometry" />
        </mxCell>
        <mxCell id="uy8-HGgZ6Y9Sa29WdMy9-97" value="&lt;b&gt;case 2:&lt;/b&gt;" style="text;html=1;strokeColor=none;fillColor=none;align=center;verticalAlign=middle;whiteSpace=wrap;rounded=0;" vertex="1" parent="WIyWlLk6GJQsqaUBKTNV-1">
          <mxGeometry x="-283" y="360" width="50" height="30" as="geometry" />
        </mxCell>
      </root>
    </mxGraphModel>
  </diagram>
</mxfile>
